HIERARCHY
ROOT Hips
{
	OFFSET 0.00000 0.00000 0.00000
	CHANNELS 6 Xposition Yposition Zposition Zrotation Yrotation Xrotation 
	JOINT LHipJoint
	{
		OFFSET 0 0 0
		CHANNELS 3 Zrotation Yrotation Xrotation
		JOINT LeftHip
		{
			OFFSET 1.34019 -1.87553 0.90315
			CHANNELS 3 Zrotation Yrotation Xrotation
			JOINT LeftKnee
			{
				OFFSET 2.55316 -7.01474 0.00000
				CHANNELS 3 Zrotation Yrotation Xrotation
				JOINT LeftAnkle
				{
					OFFSET 2.64657 -7.27139 0.00000
					CHANNELS 3 Zrotation Yrotation Xrotation
					JOINT LeftToe
					{
						OFFSET 0.24207 -0.66507 2.14489
						CHANNELS 3 Zrotation Yrotation Xrotation
						End Site
						{
							OFFSET 0.00000 -0.00000 1.12451
						}
					}
				}
			}
		}
	}
	JOINT RHipJoint
	{
		OFFSET 0 0 0
		CHANNELS 3 Zrotation Yrotation Xrotation
		JOINT RightHip
		{
			OFFSET -1.28320 -1.87553 0.90315
			CHANNELS 3 Zrotation Yrotation Xrotation
			JOINT RightKnee
			{
				OFFSET -2.60484 -7.15674 0.00000
				CHANNELS 3 Zrotation Yrotation Xrotation
				JOINT RightAnkle
				{
					OFFSET -2.60296 -7.15159 0.00000
					CHANNELS 3 Zrotation Yrotation Xrotation
					JOINT RightToe
					{
						OFFSET -0.31082 -0.85398 2.28998
						CHANNELS 3 Zrotation Yrotation Xrotation
						End Site
						{
							OFFSET -0.00000 -0.00000 1.21611
						}
					}
				}
			}
		}
	}
	JOINT lowerback
	{
		OFFSET 0 0 0
		CHANNELS 3 Zrotation Yrotation Xrotation
		JOINT Chest
		{
			OFFSET -0.00160 2.05581 -0.15156
			CHANNELS 3 Zrotation Yrotation Xrotation
			JOINT Chest2
			{
				OFFSET 0.04594 2.06326 -0.01617
				CHANNELS 3 Zrotation Yrotation Xrotation
				JOINT lowerneck
				{
					OFFSET 0 0 0
					CHANNELS 3 Zrotation Yrotation Xrotation
					JOINT Neck
					{
						OFFSET 0.03753 1.73883 0.26751
						CHANNELS 3 Zrotation Yrotation Xrotation
						JOINT Head
						{
							OFFSET -0.09795 1.76129 -0.31794
							CHANNELS 3 Zrotation Yrotation Xrotation
							End Site
							{
								OFFSET -0.03611 1.79987 -0.13846
							}
						}
					}
				}
				JOINT LeftCollar
				{
					OFFSET 0 0 0
					CHANNELS 3 Zrotation Yrotation Xrotation
					JOINT LeftShoulder
					{
						OFFSET 3.30667 1.29205 -0.22445
CHANNELS 3 Zrotation Xrotation Yrotation
						JOINT LeftElbow
						{
OFFSET 0 -4.927850 -0.000000
CHANNELS 3 Zrotation Xrotation Yrotation
							JOINT LeftWrist
							{
OFFSET 0 -3.440520 0.000000
CHANNELS 3 Zrotation Xrotation Yrotation
								JOINT lhand
								{
									OFFSET 0 0 0
CHANNELS 3 Zrotation Xrotation Yrotation
									JOINT LFingers
									{
OFFSET 0 -0.654330 0.000000
CHANNELS 3 Zrotation Xrotation Yrotation
										End Site
										{
OFFSET 0 -0.527530 0.000000
										}
									}
								}
								JOINT LThumb
								{
OFFSET 0 0.000000 0.000000
CHANNELS 3 Zrotation Xrotation Yrotation
									End Site
									{
OFFSET 0 -0.535590 0.535590
									}
								}
							}
						}
					}
				}
				JOINT RightCollar
				{
					OFFSET 0 0 0
					CHANNELS 3 Zrotation Yrotation Xrotation
					JOINT RightShoulder
					{
						OFFSET -3.20032 1.49783 -0.27688
CHANNELS 3 Zrotation Xrotation Yrotation
						JOINT RightElbow
						{
OFFSET 0 -5.091810 -0.000000
CHANNELS 3 Zrotation Xrotation Yrotation
							JOINT RightWrist
							{
OFFSET 0 -3.498650 -0.000000
CHANNELS 3 Zrotation Xrotation Yrotation
								JOINT rhand
								{
									OFFSET 0 0 0
CHANNELS 3 Zrotation Xrotation Yrotation
									JOINT RFingers
									{
OFFSET 0 -0.666410 0.000000
CHANNELS 3 Zrotation Xrotation Yrotation
										End Site
										{
OFFSET 0 -0.537280 0.000000
										}
									}
								}
								JOINT RThumb
								{
OFFSET 0 0.000000 0.000000
CHANNELS 3 Zrotation Xrotation Yrotation
									End Site
									{
OFFSET 0 -0.545480 0.545480
									}
								}
							}
						}
					}
				}
			}
		}
	}
}
MOTION
Frames: 5
Frame Time: 0.008333333333333333
1.729971 16.635745 6.328664 -10.569295 4.911020 -3.184615 0.000000 0.000000 0.000000 -13.009827 -6.767921 -31.705596 9.394850 17.055133 57.445876 0.841628 5.673725 -20.288102 0.160361 -2.579772 -7.110991 0.000000 0.000000 0.000000 21.830543 -10.143801 -12.611656 -15.952169 -19.602504 78.089116 -0.439353 -14.691379 -25.016885 -0.180089 2.733171 -7.536861 -0.141729 1.890456 16.662177 3.861183 2.846168 0.468696 3.571621 1.471434 -9.077178 3.873381 -1.044155 -20.030092 -2.026431 -2.168323 24.084183 -1.714805 -0.877165 11.046180 0.000000 0.000000 0.000000 6.176841 13.096935 -9.400659 16.562711 -26.277744 3.891805 18.270797 -3.800428 9.766511 0.000000 0.000000 0.000000 -7.125000 0.000000 0.000000 -6.205830 19.736047 -3.767515 0.000000 0.000000 0.000000 -8.147586 15.499706 21.016721 -16.221651 -25.820031 -3.741998 -22.701971 -7.869290 -5.671435 0.000000 0.000000 0.000000 7.125000 0.000000 0.000000 2.970806 23.836910 1.518812
1.736589 16.602967 6.476139 -10.176859 4.588543 -3.264954 0.000000 0.000000 0.000000 -13.428143 -6.303144 -31.266668 9.545108 17.145938 57.956708 0.944239 5.695207 -21.263021 0.166268 -2.626758 -7.241243 0.000000 0.000000 0.000000 21.450785 -9.914270 -13.341520 -15.891109 -19.590311 77.907252 -0.520814 -14.388972 -25.352997 -0.191808 2.819771 -7.777484 -0.594957 1.914916 16.898737 3.784710 2.784346 0.552813 3.759047 1.458658 -9.131195 3.972790 -0.910505 -20.178173 -2.032221 -2.018584 24.110015 -1.713640 -0.800538 11.088906 0.000000 0.000000 0.000000 5.900070 12.762382 -10.313740 16.680786 -26.434823 3.944311 17.716037 -4.196056 9.517087 0.000000 0.000000 0.000000 -7.125000 0.000000 0.000000 -6.602407 20.030680 -3.967505 0.000000 0.000000 0.000000 -8.624944 15.153911 22.647112 -16.598033 -26.324272 -3.907711 -21.973374 -8.812939 -5.849252 0.000000 0.000000 0.000000 7.125000 0.000000 0.000000 3.511926 23.678226 1.809717
1.741230 16.584720 6.621792 -9.632552 4.448964 -3.276494 0.000000 0.000000 0.000000 -14.047127 -5.958643 -30.765566 9.620685 17.190942 58.212851 1.037044 5.672455 -22.078259 0.167115 -2.633616 -7.260322 0.000000 0.000000 0.000000 20.866754 -9.923468 -14.140039 -15.802834 -19.572231 77.643695 -0.617030 -13.887663 -25.593836 -0.218637 3.008499 -8.302611 -1.232990 1.888541 17.097604 3.663964 2.613599 0.597532 4.032675 1.401397 -9.203553 4.085604 -0.774326 -20.342931 -1.956720 -1.893827 24.154665 -1.689081 -0.723169 11.142445 0.000000 0.000000 0.000000 5.794289 12.615989 -11.963616 17.040178 -26.910003 4.105878 17.402272 -5.097965 9.335173 0.000000 0.000000 0.000000 -7.125000 0.000000 0.000000 -6.827989 20.238377 -4.073017 0.000000 0.000000 0.000000 -9.133509 14.889705 24.355621 -17.096957 -26.984459 -4.131815 -21.178690 -9.269744 -6.159249 0.000000 0.000000 0.000000 7.125000 0.000000 0.000000 4.099929 23.382186 2.142264
1.743496 16.580000 6.765838 -9.039530 4.510688 -3.176573 0.000000 0.000000 0.000000 -14.735997 -5.760528 -30.283216 9.636876 17.200566 58.267739 1.121967 5.587067 -22.755709 0.162997 -2.601117 -7.170134 0.000000 0.000000 0.000000 20.216559 -10.159793 -15.057923 -15.690845 -19.548783 77.309062 -0.710335 -13.282104 -25.712904 -0.254029 3.241432 -8.951820 -1.927766 1.804274 17.214013 3.523827 2.351901 0.587573 4.343413 1.304023 -9.279917 4.195136 -0.650517 -20.505845 -1.827086 -1.801353 24.212257 -1.648817 -0.653441 11.200323 0.000000 0.000000 0.000000 5.861385 12.586783 -14.172865 17.578480 -27.613030 4.352609 17.366421 -6.252147 9.274799 0.000000 0.000000 0.000000 -7.125000 0.000000 0.000000 -6.854186 20.303156 -4.078952 0.000000 0.000000 0.000000 -9.611427 14.702685 25.899141 -17.703359 -27.774480 -4.410788 -20.488894 -9.188634 -6.521269 0.000000 0.000000 0.000000 7.125000 0.000000 0.000000 4.607547 23.028323 2.446194
1.745052 16.587269 6.909034 -8.540165 4.752170 -2.961173 0.000000 0.000000 0.000000 -15.331699 -5.709946 -29.849728 9.607378 17.183080 58.167853 1.199857 5.463129 -23.329330 0.156370 -2.547804 -7.022196 0.000000 0.000000 0.000000 19.675570 -10.581839 -16.086173 -15.557666 -19.520127 76.910963 -0.785802 -12.671097 -25.702644 -0.287258 3.446253 -9.523849 -2.492295 1.657380 17.219796 3.399150 2.034680 0.527286 4.612556 1.175926 -9.335014 4.304590 -0.545525 -20.648815 -1.703548 -1.733051 24.251846 -1.613676 -0.595699 11.246715 0.000000 0.000000 0.000000 6.065833 12.592142 -16.667332 18.233303 -28.454321 4.660189 17.579336 -7.374063 9.327204 0.000000 0.000000 0.000000 -7.125000 0.000000 0.000000 -6.701325 20.236221 -3.996859 0.000000 0.000000 0.000000 -10.020446 14.579999 27.136433 -18.392867 -28.656611 -4.736502 -20.023477 -8.704590 -6.843188 0.000000 0.000000 0.000000 7.125000 0.000000 0.000000 4.947878 22.708821 2.664007
